<svg width="81" height="38" viewBox="0 0 81 38" fill="none" xmlns="http://www.w3.org/2000/svg">
<g id="5e4aa5e40928ff6be2bef569_Logo.svg" clip-path="url(#clip0_10_479)">
<path id="Vector" d="M16.3096 17.1106C13.9473 15.9855 10.989 14.5702 9.15865 12.6879C7.56954 11.0391 6.92397 9.42571 6.92397 7.11174C6.92397 3.75755 8.96001 1.1676 11.2231 0C8.44923 0.318436 6.05847 1.1959 4.34876 2.54749C1.8445 4.45103 0.581726 7.09759 0.581726 10.4306C0.581726 13.0347 1.51107 15.2354 3.49745 17.3442C5.21426 19.1486 7.79656 20.5922 10.5278 22.1207L11.3721 22.5948C14.4439 24.279 17.0971 25.8146 18.4024 27.5836C19.2254 28.7442 19.5659 29.7985 19.5659 31.136C19.5659 34.1151 17.693 36.606 14.5928 37.8585C17.7923 37.5118 20.552 36.4999 22.5242 34.9289C24.766 33.0891 25.9578 30.6053 25.9578 27.7676C25.9649 22.4391 21.9637 19.9907 16.3096 17.1106Z" fill="white"/>
<path id="Vector_2" d="M0 28.5459C0.0283769 28.7653 0.0567539 28.9917 0.0780366 29.2111C0.432748 32.1478 0.766177 34.9358 1.15636 36.5563C3.66062 37.448 7.61921 37.9858 11.8899 37.9999C9.58431 37.2923 7.2574 35.9336 4.95177 33.9593C3.47617 32.7068 1.56073 30.8599 0 28.5459Z" fill="white"/>
<path id="Vector_3" d="M76.263 0.311264C74.7803 0.325417 73.2408 0.33957 71.822 0.33957C71.3963 0.33957 70.9423 0.33957 70.467 0.332494L48.3542 37.6674L57.6619 37.632L80.2073 0.282959C79.3206 0.290035 77.2491 0.297112 76.263 0.311264Z" fill="white"/>
<path id="Vector_4" d="M65.5152 37.6676H77.3271L79.0794 27.0247C79.0865 27.0247 73.3189 35.5305 65.5152 37.6676Z" fill="white"/>
<path id="Vector_5" d="M49.4184 15.5328C56.2856 1.52864 60.2087 0.283203 60.2087 0.283203H47.0702C47.0702 0.283203 52.7881 3.61617 49.4184 15.5328Z" fill="white"/>
<path id="Vector_6" d="M36.4998 12.8296C31.9453 2.92268 34.9461 0.721937 35.9393 0.283203H20.6158H19.4169C23.2123 0.283203 25.298 5.78153 25.298 5.78153L34.8397 27.1238C36.3721 30.5134 38.3372 34.8866 39.5503 37.6605V37.6676L44.4098 29.459C43.6933 28.0367 37.195 14.3722 36.9042 13.7354C36.7765 13.4382 36.6346 13.1339 36.4998 12.8296Z" fill="white"/>
</g>
<defs>
<clipPath id="clip0_10_479">
<rect width="81" height="38" fill="white"/>
</clipPath>
</defs>
</svg>
